<?xml version="1.0" standalone="no"?><!DOCTYPE svg PUBLIC "-//W3C//DTD SVG 1.1//EN" "http://www.w3.org/Graphics/SVG/1.1/DTD/svg11.dtd"><svg height="1024" node-id="1" sillyvg="true" template-height="1024" template-width="1024" version="1.1" viewBox="0 0 1024 1024" width="1024" xmlns="http://www.w3.org/2000/svg" xmlns:xlink="http://www.w3.org/1999/xlink"><defs node-id="39"></defs><path d="M 0.00 0.00 L 1024.00 0.00 L 1024.00 1024.00 L 0.00 1024.00 Z" fill="#ffffff" fill-rule="nonzero" node-id="41" stroke="none" target-height="1024" target-width="1024" target-x="0" target-y="0"></path><path d="M 253.30 185.70 L 255.20 185.10 L 256.90 185.00 L 258.70 185.40 L 261.80 187.10 L 264.10 189.80 L 265.30 193.20 L 265.30 195.00 L 264.90 196.70 L 263.10 199.80 L 260.70 201.70 L 258.40 202.50 L 256.10 202.70 L 253.70 202.40 L 251.60 201.50 L 250.30 200.60 L 249.20 199.40 L 247.60 196.40 L 247.20 193.20 L 248.20 190.00 L 250.40 187.40 L 253.30 185.70 Z" fill="#fdfdfe" fill-rule="nonzero" node-id="43" stroke="none" target-height="17.699997" target-width="18.09999" target-x="247.2" target-y="185"></path><path d="M 91.50 370.80 L 93.30 370.50 L 96.10 371.10 L 97.80 372.30 L 99.10 374.00 L 100.00 376.10 L 100.20 379.70 L 99.20 382.30 L 97.00 384.20 L 95.40 384.90 L 93.50 385.30 L 92.00 385.20 L 90.60 384.80 L 88.30 383.10 L 86.50 379.80 L 86.20 377.50 L 86.30 376.00 L 87.50 373.30 L 88.40 372.20 L 89.80 371.40 L 91.50 370.80 Z" fill="#fdfdfe" fill-rule="nonzero" node-id="45" stroke="none" target-height="14.799988" target-width="14" target-x="86.2" target-y="370.5"></path><path d="M 473.30 160.50 L 480.10 154.90 L 487.10 149.60 L 494.50 144.70 L 502.00 140.20 L 509.80 136.00 L 517.80 132.30 L 525.90 128.90 L 534.30 126.00 L 542.70 123.40 L 551.30 121.30 L 559.90 119.60 L 568.70 118.30 L 577.50 117.40 L 586.30 117.00 L 595.10 117.10 L 612.30 118.40 L 620.50 119.60 L 628.80 121.20 L 636.90 123.20 L 644.90 125.60 L 660.60 131.40 L 675.70 138.80 L 690.00 147.50 L 696.90 152.30 L 709.90 162.90 L 721.80 174.60 L 728.90 171.90 L 736.10 169.80 L 743.50 168.20 L 750.90 167.10 L 758.40 166.60 L 766.00 166.60 L 773.50 167.30 L 780.90 168.50 L 788.20 170.20 L 798.90 174.00 L 809.00 179.10 L 818.80 185.60 L 827.60 193.20 L 832.90 198.80 L 837.60 204.90 L 841.90 211.40 L 845.70 218.10 L 848.90 225.20 L 851.50 232.50 L 854.30 243.80 L 855.70 255.40 L 861.40 256.70 L 866.80 258.50 L 872.10 260.80 L 877.20 263.70 L 881.80 267.10 L 886.10 270.90 L 891.70 277.50 L 894.00 281.20 L 897.90 289.80 L 899.20 294.60 L 900.10 299.50 L 900.40 304.50 L 900.20 309.50 L 899.60 314.50 L 898.40 319.40 L 896.90 324.10 L 894.80 328.70 L 909.80 328.30 L 918.10 328.70 L 924.50 330.20 L 926.50 331.40 L 928.00 332.90 L 929.10 334.60 L 930.20 338.40 L 930.20 340.40 L 929.30 344.40 L 928.40 346.20 L 925.80 349.30 L 922.30 351.30 L 920.30 351.80 L 801.60 352.00 L 797.80 351.00 L 794.70 348.90 L 793.40 347.40 L 791.80 345.00 L 790.90 342.20 L 790.60 338.30 L 791.00 336.30 L 794.20 332.30 L 796.20 330.70 L 798.50 329.60 L 800.90 329.00 L 819.00 328.70 L 865.30 328.80 L 869.90 323.20 L 873.80 317.20 L 875.10 313.90 L 875.80 310.30 L 876.20 306.40 L 876.00 302.60 L 875.20 298.80 L 873.90 295.20 L 872.10 291.90 L 869.90 288.70 L 867.30 285.90 L 864.30 283.50 L 860.90 281.60 L 855.70 279.70 L 853.10 279.20 L 840.70 278.30 L 836.60 277.60 L 833.60 275.40 L 832.60 274.00 L 831.60 271.70 L 831.10 269.10 L 830.50 252.80 L 829.80 247.40 L 828.80 242.20 L 827.20 237.00 L 825.30 231.90 L 823.00 227.10 L 820.30 222.50 L 817.20 218.00 L 813.80 213.80 L 810.10 209.90 L 806.10 206.40 L 801.70 203.10 L 793.40 198.10 L 784.50 194.30 L 778.30 192.50 L 772.10 191.40 L 765.60 190.70 L 759.20 190.70 L 752.80 191.10 L 746.40 192.20 L 740.10 193.80 L 734.10 195.90 L 728.20 198.60 L 722.60 201.80 L 717.40 205.50 L 712.50 209.80 L 709.60 212.90 L 699.30 226.30 L 696.50 229.50 L 694.30 230.70 L 692.20 231.30 L 689.90 231.50 L 687.60 231.20 L 685.50 230.50 L 683.40 229.40 L 681.60 228.00 L 680.00 226.30 L 678.80 224.40 L 678.00 222.30 L 677.60 220.00 L 677.80 217.60 L 679.20 213.50 L 681.00 209.70 L 683.20 206.10 L 687.00 201.10 L 691.30 196.30 L 700.20 187.20 L 694.30 181.60 L 688.10 176.40 L 681.70 171.40 L 675.00 166.80 L 668.10 162.60 L 661.00 158.70 L 653.70 155.20 L 646.20 152.00 L 638.60 149.30 L 630.90 146.90 L 623.10 145.00 L 615.10 143.40 L 607.10 142.30 L 599.00 141.60 L 590.90 141.40 L 573.90 142.30 L 565.10 143.40 L 556.40 145.10 L 547.70 147.30 L 539.20 150.00 L 531.00 153.20 L 522.90 156.90 L 515.00 161.10 L 507.30 165.60 L 500.00 170.60 L 493.00 176.00 L 486.20 181.90 L 479.90 188.10 L 473.90 194.60 L 468.40 201.50 L 463.30 208.80 L 458.70 216.40 L 454.60 224.20 L 451.00 232.40 L 448.00 240.80 L 471.30 242.00 L 482.90 241.80 L 487.80 241.10 L 492.50 239.90 L 506.50 235.60 L 511.40 234.70 L 516.20 235.20 L 521.70 237.50 L 524.80 239.40 L 544.40 254.10 L 549.20 257.30 L 559.20 262.90 L 564.40 265.10 L 569.90 266.80 L 575.60 267.90 L 580.00 268.50 L 593.30 268.80 L 602.20 269.70 L 604.50 270.80 L 606.30 272.30 L 607.60 274.20 L 608.60 276.30 L 609.10 278.50 L 609.20 280.90 L 608.90 283.30 L 608.20 285.50 L 607.10 287.60 L 605.60 289.40 L 603.70 290.80 L 601.40 291.90 L 595.50 292.70 L 589.60 293.00 L 577.70 292.20 L 565.90 290.70 L 563.40 295.90 L 559.60 306.70 L 558.30 312.20 L 557.00 319.80 L 556.50 327.30 L 556.50 335.00 L 557.20 342.60 L 558.50 350.10 L 560.40 357.50 L 562.80 364.80 L 565.80 371.80 L 569.40 378.60 L 572.70 383.90 L 576.30 388.90 L 580.20 393.80 L 584.50 398.30 L 593.80 406.60 L 604.00 413.70 L 615.10 419.40 L 626.80 423.80 L 633.50 425.60 L 640.20 426.90 L 647.00 427.90 L 653.90 428.30 L 660.90 428.40 L 667.80 427.90 L 674.60 427.10 L 681.40 425.70 L 688.10 424.00 L 694.60 421.70 L 700.90 419.10 L 707.10 415.90 L 713.50 412.20 L 719.60 408.00 L 725.40 403.30 L 730.90 398.30 L 735.90 392.80 L 740.60 387.00 L 744.80 380.90 L 748.50 374.50 L 751.70 367.80 L 754.30 360.90 L 756.30 353.70 L 759.70 336.60 L 761.10 333.70 L 762.30 332.00 L 763.90 330.60 L 768.20 328.80 L 770.30 328.50 L 772.40 328.70 L 776.30 330.30 L 778.10 331.50 L 780.50 333.80 L 782.60 336.30 L 782.60 341.90 L 781.50 353.00 L 780.40 358.60 L 778.40 365.80 L 775.90 372.80 L 773.00 379.80 L 769.60 386.50 L 765.80 393.00 L 761.80 399.20 L 757.70 404.70 L 748.70 414.80 L 738.60 423.90 L 727.60 431.80 L 721.80 435.40 L 713.80 439.60 L 705.50 443.30 L 697.00 446.30 L 690.40 448.20 L 677.20 450.90 L 663.10 452.20 L 655.90 452.30 L 648.70 452.00 L 641.50 451.30 L 634.30 450.20 L 620.20 446.90 L 613.30 444.60 L 606.60 442.00 L 600.00 438.90 L 593.60 435.60 L 587.40 431.80 L 581.50 427.70 L 575.80 423.30 L 570.40 418.50 L 560.40 408.00 L 556.00 402.50 L 552.00 396.70 L 548.20 390.60 L 544.90 384.30 L 541.90 377.90 L 539.30 371.30 L 537.10 364.60 L 535.20 357.70 L 533.80 350.80 L 532.80 343.80 L 532.10 336.70 L 531.90 329.60 L 532.10 322.50 L 532.80 315.50 L 533.90 308.50 L 535.40 301.60 L 537.40 294.80 L 539.90 288.10 L 542.80 281.50 L 531.60 274.70 L 510.70 259.10 L 504.30 261.40 L 497.80 263.20 L 486.20 265.40 L 476.10 265.80 L 461.90 264.70 L 452.70 264.30 L 443.50 264.40 L 434.30 264.90 L 425.20 266.10 L 416.20 267.80 L 409.60 269.60 L 403.10 271.80 L 396.80 274.40 L 388.10 279.00 L 383.80 282.70 L 372.90 295.70 L 370.60 296.80 L 368.20 297.40 L 365.90 297.40 L 363.50 296.90 L 361.30 296.10 L 359.30 294.80 L 357.50 293.30 L 356.00 291.40 L 354.90 289.30 L 354.30 287.10 L 354.20 284.70 L 354.70 282.10 L 358.00 275.30 L 360.20 272.30 L 363.90 268.00 L 368.10 264.10 L 372.60 260.70 L 377.30 257.50 L 382.00 254.90 L 391.60 250.50 L 399.20 247.90 L 406.90 245.70 L 422.60 242.50 L 424.70 234.60 L 427.20 226.80 L 430.10 219.20 L 433.50 211.80 L 437.30 204.50 L 441.40 197.50 L 445.90 190.70 L 450.70 184.10 L 455.90 177.80 L 461.40 171.70 L 467.20 166.00 L 473.30 160.50 Z" fill="#312d2e" fill-rule="nonzero" node-id="47" stroke="none" target-height="335.3" target-width="576" target-x="354.2" target-y="117"></path><path d="M 448.00 240.80 L 451.00 232.40 L 454.60 224.20 L 458.70 216.40 L 463.30 208.80 L 468.40 201.50 L 473.90 194.60 L 479.90 188.10 L 486.20 181.90 L 493.00 176.00 L 500.00 170.60 L 507.30 165.60 L 515.00 161.10 L 522.90 156.90 L 531.00 153.20 L 539.20 150.00 L 547.70 147.30 L 556.40 145.10 L 565.10 143.40 L 573.90 142.30 L 590.90 141.40 L 599.00 141.60 L 607.10 142.30 L 615.10 143.40 L 623.10 145.00 L 630.90 146.90 L 638.60 149.30 L 646.20 152.00 L 653.70 155.20 L 661.00 158.70 L 668.10 162.60 L 675.00 166.80 L 681.70 171.40 L 688.10 176.40 L 694.30 181.60 L 700.20 187.20 L 691.30 196.30 L 687.00 201.10 L 683.20 206.10 L 681.00 209.70 L 679.20 213.50 L 677.80 217.60 L 677.60 220.00 L 678.00 222.30 L 678.80 224.40 L 680.00 226.30 L 683.40 229.40 L 685.50 230.50 L 687.60 231.20 L 689.90 231.50 L 692.20 231.30 L 694.30 230.70 L 696.50 229.50 L 699.30 226.30 L 709.60 212.90 L 712.50 209.80 L 717.40 205.50 L 722.60 201.80 L 728.20 198.60 L 734.10 195.90 L 740.10 193.80 L 746.40 192.20 L 752.80 191.10 L 759.20 190.70 L 765.60 190.70 L 772.10 191.40 L 778.30 192.50 L 784.50 194.30 L 793.40 198.10 L 801.70 203.10 L 806.10 206.40 L 810.10 209.90 L 813.80 213.80 L 817.20 218.00 L 820.30 222.50 L 823.00 227.10 L 825.30 231.90 L 827.20 237.00 L 828.80 242.20 L 829.80 247.40 L 830.50 252.80 L 831.10 269.10 L 831.60 271.70 L 832.60 274.00 L 833.60 275.40 L 836.60 277.60 L 840.70 278.30 L 853.10 279.20 L 858.40 280.50 L 860.90 281.60 L 864.30 283.50 L 867.30 285.90 L 869.90 288.70 L 872.10 291.90 L 873.90 295.20 L 875.20 298.80 L 876.00 302.60 L 876.20 306.40 L 875.80 310.30 L 875.10 313.90 L 873.80 317.20 L 869.90 323.20 L 865.30 328.80 L 819.00 328.70 L 800.90 329.00 L 798.50 329.60 L 796.20 330.70 L 794.20 332.30 L 792.50 334.10 L 787.10 341.60 L 780.50 333.80 L 776.30 330.30 L 772.40 328.70 L 770.30 328.50 L 768.20 328.80 L 766.00 329.50 L 763.90 330.60 L 762.30 332.00 L 761.10 333.70 L 759.70 336.60 L 756.30 353.70 L 754.30 360.90 L 751.70 367.80 L 748.50 374.50 L 744.80 380.90 L 740.60 387.00 L 735.90 392.80 L 730.90 398.30 L 725.40 403.30 L 719.60 408.00 L 713.50 412.20 L 707.10 415.90 L 700.90 419.10 L 694.60 421.70 L 688.10 424.00 L 681.40 425.70 L 674.60 427.10 L 667.80 427.90 L 660.90 428.40 L 653.90 428.30 L 647.00 427.90 L 640.20 426.90 L 633.50 425.60 L 626.80 423.80 L 620.80 421.80 L 609.50 416.70 L 598.80 410.30 L 593.80 406.60 L 584.50 398.30 L 580.20 393.80 L 576.30 388.90 L 572.70 383.90 L 569.40 378.60 L 565.80 371.80 L 562.80 364.80 L 560.40 357.50 L 558.50 350.10 L 557.20 342.60 L 556.50 335.00 L 556.50 327.30 L 557.00 319.80 L 558.30 312.20 L 559.60 306.70 L 563.40 295.90 L 565.90 290.70 L 577.70 292.20 L 589.60 293.00 L 595.50 292.70 L 601.40 291.90 L 603.70 290.80 L 605.60 289.40 L 607.10 287.60 L 608.20 285.50 L 608.90 283.30 L 609.20 280.90 L 609.10 278.50 L 608.60 276.30 L 607.60 274.20 L 606.30 272.30 L 604.50 270.80 L 602.20 269.70 L 593.30 268.80 L 580.00 268.50 L 569.90 266.80 L 564.40 265.10 L 559.20 262.90 L 549.20 257.30 L 544.40 254.10 L 524.80 239.40 L 521.70 237.50 L 516.20 235.20 L 511.40 234.70 L 506.50 235.60 L 492.50 239.90 L 487.80 241.10 L 482.90 241.80 L 471.30 242.00 L 448.00 240.80 Z M 760.60 262.80 L 761.40 264.60 L 763.50 267.10 L 765.60 268.60 L 772.80 272.10 L 774.90 273.60 L 776.60 275.60 L 777.50 278.10 L 777.70 280.50 L 777.50 282.90 L 776.70 285.30 L 775.60 287.40 L 774.10 289.40 L 772.20 291.20 L 770.20 292.50 L 767.90 293.50 L 764.00 294.30 L 760.10 294.60 L 756.10 294.30 L 752.20 293.50 L 748.50 292.20 L 744.90 290.50 L 741.50 288.30 L 738.50 285.70 L 735.80 282.80 L 733.50 279.60 L 731.70 276.10 L 728.40 265.00 L 726.40 260.40 L 723.80 257.50 L 720.60 256.20 L 705.60 255.60 L 670.40 255.70 L 665.20 255.90 L 662.70 256.50 L 660.40 257.50 L 657.90 259.60 L 656.90 261.10 L 655.40 264.80 L 655.20 266.70 L 655.80 270.40 L 657.50 273.90 L 660.20 276.70 L 663.60 278.40 L 665.50 278.80 L 675.80 279.30 L 706.60 279.20 L 708.70 284.60 L 711.40 289.70 L 714.50 294.60 L 718.10 299.10 L 722.10 303.20 L 726.50 307.00 L 731.20 310.20 L 736.20 313.00 L 741.50 315.20 L 745.70 316.40 L 754.20 317.90 L 763.30 318.20 L 767.90 317.90 L 772.50 317.00 L 776.90 315.50 L 781.20 313.70 L 785.20 311.30 L 788.80 308.50 L 792.10 305.30 L 795.00 301.70 L 796.90 298.80 L 799.60 292.40 L 801.30 285.20 L 801.60 281.50 L 801.50 277.70 L 800.90 273.90 L 800.00 270.30 L 798.60 266.70 L 794.90 260.20 L 792.50 257.30 L 789.80 254.60 L 786.90 252.30 L 783.70 250.40 L 780.30 248.90 L 776.70 247.90 L 770.70 247.30 L 768.80 247.60 L 765.30 249.20 L 762.40 251.80 L 760.50 255.10 L 759.80 258.90 L 760.60 262.80 Z" fill="#ffdba3" fill-rule="nonzero" node-id="49" stroke="none" target-height="287" target-width="428.2" target-x="448" target-y="141.4"></path><path d="M 252.60 156.30 L 254.40 155.50 L 256.40 155.30 L 258.40 155.60 L 260.30 156.40 L 261.80 157.60 L 263.00 159.30 L 268.20 169.30 L 270.20 172.50 L 272.50 175.50 L 278.20 180.20 L 281.20 181.90 L 290.90 186.20 L 293.90 188.00 L 295.10 189.30 L 296.40 192.30 L 296.20 195.60 L 294.80 198.60 L 292.20 200.70 L 282.70 205.20 L 276.70 208.70 L 271.60 213.60 L 269.60 216.40 L 262.70 228.80 L 261.40 230.30 L 259.70 231.30 L 257.80 231.90 L 255.80 232.00 L 253.80 231.60 L 252.00 230.80 L 250.60 229.50 L 245.00 218.90 L 242.20 214.80 L 239.00 211.00 L 236.60 208.90 L 233.90 207.00 L 228.80 204.40 L 221.90 201.30 L 219.80 200.10 L 218.10 198.50 L 216.70 195.80 L 216.40 193.90 L 217.10 191.60 L 218.10 189.70 L 219.40 188.20 L 222.00 186.40 L 231.40 182.30 L 234.40 180.70 L 238.90 177.30 L 241.90 173.90 L 243.70 170.90 L 248.40 161.60 L 250.20 158.80 L 252.60 156.30 Z M 253.30 185.70 L 250.40 187.40 L 248.20 190.00 L 247.20 193.20 L 247.60 196.40 L 249.20 199.40 L 251.60 201.50 L 253.70 202.40 L 256.10 202.70 L 258.40 202.50 L 260.70 201.70 L 262.00 200.90 L 264.10 198.50 L 264.90 196.70 L 265.30 195.00 L 264.80 191.40 L 263.10 188.30 L 260.30 186.10 L 256.90 185.00 L 255.20 185.10 L 253.30 185.70 Z" fill="#2f2c2e" fill-rule="nonzero" node-id="51" stroke="none" target-height="76.7" target-width="80" target-x="216.4" target-y="155.3"></path><path d="M 902.10 504.00 L 905.40 503.20 L 908.70 503.00 L 912.00 503.40 L 915.20 504.30 L 918.20 505.60 L 921.00 507.40 L 923.50 509.50 L 925.70 512.00 L 927.50 514.80 L 928.80 517.80 L 929.50 521.00 L 929.50 527.50 L 928.90 530.40 L 927.80 533.20 L 926.40 535.80 L 924.60 538.10 L 922.50 540.30 L 920.10 542.10 L 914.70 544.70 L 911.80 545.50 L 908.90 545.70 L 905.80 545.60 L 902.30 545.00 L 899.10 543.80 L 896.10 542.10 L 893.30 539.90 L 891.00 537.40 L 889.10 534.50 L 887.70 531.30 L 886.80 528.00 L 886.50 524.40 L 886.80 521.40 L 887.40 518.40 L 888.50 515.60 L 890.10 512.90 L 891.90 510.60 L 894.10 508.40 L 896.60 506.60 L 899.20 505.10 L 902.10 504.00 Z M 904.40 518.30 L 903.10 519.20 L 901.30 521.50 L 900.60 524.40 L 901.20 527.40 L 903.10 529.80 L 904.40 530.80 L 905.90 531.40 L 907.50 531.70 L 910.70 531.10 L 913.40 529.30 L 914.40 528.00 L 915.30 525.00 L 914.90 522.30 L 913.80 520.40 L 912.40 518.90 L 910.50 517.80 L 908.50 517.30 L 907.10 517.30 L 904.40 518.30 Z" fill="#2f2c2e" fill-rule="nonzero" node-id="53" stroke="none" target-height="42.700012" target-width="43" target-x="886.5" target-y="503"></path><path d="M 96.30 637.70 L 99.40 636.60 L 102.50 636.00 L 105.60 636.00 L 108.60 636.50 L 111.50 637.30 L 114.30 638.70 L 116.90 640.30 L 119.30 642.30 L 121.40 644.60 L 123.20 647.20 L 124.50 649.90 L 125.50 652.80 L 126.00 655.80 L 126.00 658.90 L 124.50 665.20 L 123.20 667.90 L 121.50 670.30 L 119.50 672.50 L 117.20 674.30 L 114.60 675.90 L 111.90 677.10 L 106.00 678.40 L 103.00 678.50 L 100.10 678.20 L 97.20 677.50 L 94.50 676.40 L 91.90 674.80 L 89.50 672.70 L 87.40 670.60 L 85.70 668.30 L 84.50 665.90 L 83.10 660.50 L 82.90 657.70 L 83.70 652.10 L 84.60 649.40 L 85.80 646.80 L 89.20 642.30 L 91.30 640.40 L 93.70 638.90 L 96.30 637.70 Z M 100.70 651.10 L 99.10 652.20 L 98.00 653.30 L 97.30 654.70 L 97.00 657.60 L 97.40 659.20 L 98.40 661.30 L 100.00 663.00 L 101.20 664.00 L 104.10 664.80 L 105.50 664.70 L 107.10 664.10 L 110.20 661.60 L 111.10 660.10 L 111.40 658.50 L 110.90 655.20 L 108.90 652.30 L 106.00 650.50 L 104.40 650.20 L 102.60 650.30 L 100.70 651.10 Z" fill="#2f2c2e" fill-rule="nonzero" node-id="55" stroke="none" target-height="42.5" target-width="43.1" target-x="82.9" target-y="636"></path><path d="M 105.70 808.30 L 109.10 806.90 L 116.60 806.40 L 218.90 806.30 L 221.00 806.60 L 225.00 808.20 L 226.70 809.40 L 229.40 812.60 L 230.20 814.50 L 230.80 819.00 L 230.40 821.10 L 229.60 823.00 L 228.40 824.90 L 225.20 827.70 L 223.20 828.70 L 221.20 829.20 L 219.00 829.40 L 119.20 829.60 L 110.60 829.30 L 107.90 828.60 L 104.70 826.90 L 101.90 823.70 L 101.00 821.80 L 100.50 819.60 L 100.40 817.40 L 100.70 815.20 L 101.40 813.10 L 102.40 811.20 L 103.90 809.60 L 105.70 808.30 Z" fill="#2f2c2e" fill-rule="nonzero" node-id="57" stroke="none" target-height="23.299988" target-width="130.4" target-x="100.4" target-y="806.3"></path><path d="M 760.60 262.80 L 759.80 258.90 L 760.50 255.10 L 762.40 251.80 L 765.30 249.20 L 768.80 247.60 L 770.70 247.30 L 776.70 247.90 L 780.30 248.90 L 783.70 250.40 L 786.90 252.30 L 789.80 254.60 L 792.50 257.30 L 794.90 260.20 L 798.60 266.70 L 800.00 270.30 L 800.90 273.90 L 801.50 277.70 L 801.60 281.50 L 801.30 285.20 L 799.60 292.40 L 796.90 298.80 L 795.00 301.70 L 792.10 305.30 L 788.80 308.50 L 785.10 311.30 L 781.10 313.70 L 776.90 315.50 L 772.50 317.00 L 767.90 317.90 L 763.30 318.20 L 754.20 317.90 L 749.90 317.30 L 741.50 315.20 L 736.20 313.00 L 731.20 310.20 L 726.50 307.00 L 722.10 303.20 L 718.10 299.10 L 714.50 294.60 L 711.40 289.70 L 708.70 284.60 L 706.60 279.20 L 675.80 279.30 L 665.50 278.80 L 663.60 278.40 L 660.20 276.70 L 657.50 273.90 L 656.50 272.20 L 655.80 270.40 L 655.20 266.70 L 655.90 263.00 L 657.90 259.60 L 659.10 258.40 L 662.70 256.50 L 665.20 255.90 L 670.40 255.70 L 705.60 255.60 L 720.60 256.20 L 723.80 257.50 L 726.40 260.40 L 728.40 265.00 L 731.70 276.10 L 733.50 279.60 L 735.80 282.80 L 738.50 285.70 L 741.50 288.30 L 744.90 290.50 L 748.50 292.20 L 752.20 293.50 L 756.10 294.30 L 760.10 294.60 L 764.00 294.30 L 767.90 293.50 L 770.20 292.50 L 772.20 291.20 L 774.10 289.40 L 775.60 287.40 L 776.70 285.30 L 777.50 282.90 L 777.70 280.50 L 777.50 278.10 L 776.60 275.60 L 774.90 273.60 L 772.80 272.10 L 765.60 268.60 L 763.50 267.10 L 761.30 264.60 L 760.60 262.80 Z" fill="#312d2f" fill-rule="nonzero" node-id="59" stroke="none" target-height="70.90001" target-width="146.39996" target-x="655.2" target-y="247.3"></path><path d="M 312.00 330.10 L 323.10 328.40 L 328.80 328.10 L 334.50 328.10 L 340.10 328.60 L 345.70 329.40 L 351.20 330.70 L 356.50 332.50 L 361.70 334.60 L 366.70 337.30 L 371.40 340.40 L 375.80 344.00 L 381.60 349.70 L 403.40 373.70 L 418.90 388.60 L 429.00 397.40 L 439.40 405.70 L 450.20 413.60 L 461.30 420.90 L 472.70 427.90 L 484.40 434.40 L 496.30 440.40 L 508.50 446.00 L 520.80 451.20 L 533.30 455.90 L 546.10 460.20 L 558.90 464.00 L 571.80 467.40 L 584.80 470.40 L 597.90 473.00 L 612.50 475.40 L 627.10 477.40 L 641.80 479.00 L 656.60 480.20 L 671.40 480.90 L 686.10 481.20 L 700.90 481.10 L 715.70 480.40 L 730.40 479.30 L 745.10 477.70 L 759.70 475.60 L 797.40 469.00 L 803.20 468.40 L 809.00 468.30 L 812.90 468.50 L 820.60 470.10 L 824.70 471.50 L 828.60 473.40 L 832.40 475.60 L 836.00 478.20 L 839.20 481.10 L 842.10 484.40 L 844.60 488.00 L 846.60 491.80 L 848.10 495.90 L 851.00 507.60 L 853.40 519.40 L 855.40 531.20 L 856.90 543.20 L 858.00 555.20 L 858.60 567.20 L 858.80 579.20 L 858.50 591.20 L 857.70 603.20 L 856.50 615.20 L 854.80 627.10 L 852.70 638.90 L 847.20 662.00 L 840.50 684.80 L 836.50 696.00 L 832.20 707.00 L 827.40 717.90 L 822.00 728.50 L 816.20 738.80 L 809.50 749.80 L 802.30 760.40 L 794.70 770.70 L 786.70 780.70 L 778.20 790.30 L 769.40 799.60 L 760.30 808.50 L 750.70 817.00 L 740.80 825.20 L 730.70 833.10 L 720.30 840.50 L 709.60 847.60 L 698.60 854.30 L 687.50 860.70 L 676.20 866.60 L 664.60 872.10 L 651.00 878.00 L 637.30 883.30 L 623.30 888.10 L 609.10 892.40 L 594.80 896.20 L 580.40 899.40 L 565.80 902.00 L 551.20 904.10 L 536.50 905.70 L 521.70 906.70 L 506.90 907.10 L 492.20 907.00 L 477.40 906.30 L 462.70 905.10 L 448.00 903.30 L 433.40 900.80 L 418.90 897.90 L 404.60 894.30 L 390.40 890.10 L 376.40 885.40 L 363.40 880.50 L 350.70 875.20 L 338.20 869.40 L 325.80 863.20 L 313.70 856.40 L 301.90 849.30 L 290.40 841.60 L 279.20 833.50 L 268.30 825.00 L 257.80 816.10 L 247.70 806.70 L 238.00 796.90 L 228.70 786.70 L 219.90 776.10 L 211.60 765.10 L 203.70 753.60 L 196.80 742.70 L 190.50 731.50 L 184.70 719.90 L 180.80 711.00 L 177.30 702.00 L 174.30 692.90 L 171.60 683.50 L 167.10 665.50 L 163.20 647.30 L 161.00 635.00 L 157.80 610.40 L 156.80 598.00 L 156.40 585.60 L 156.50 573.20 L 157.80 554.70 L 159.00 545.50 L 161.70 530.30 L 164.60 518.50 L 166.60 508.70 L 166.90 504.80 L 167.20 491.10 L 168.10 481.60 L 169.50 472.20 L 171.50 462.80 L 174.20 453.60 L 177.30 444.60 L 180.90 435.70 L 185.10 427.10 L 189.80 418.70 L 194.80 410.60 L 200.30 402.80 L 206.30 395.30 L 213.20 387.40 L 220.60 379.90 L 228.30 372.70 L 236.40 365.90 L 244.90 359.50 L 253.70 353.70 L 262.80 348.40 L 272.10 343.50 L 279.80 340.00 L 287.70 337.00 L 295.60 334.30 L 303.70 332.00 L 312.00 330.10 Z M 303.10 357.10 L 293.90 360.50 L 285.00 364.30 L 276.30 368.70 L 267.90 373.70 L 259.70 379.10 L 251.90 384.90 L 244.40 391.20 L 237.30 397.90 L 230.60 405.00 L 224.30 412.40 L 218.40 420.20 L 213.00 428.30 L 208.90 435.20 L 205.30 442.20 L 202.00 449.50 L 199.10 456.90 L 196.80 464.50 L 194.80 472.20 L 193.40 480.00 L 192.50 487.90 L 192.20 495.80 L 192.30 505.40 L 193.00 514.80 L 194.30 524.10 L 196.20 533.40 L 198.60 542.50 L 201.40 551.50 L 204.70 560.30 L 208.50 569.10 L 212.60 577.60 L 217.20 585.90 L 222.00 594.00 L 227.30 601.80 L 233.10 609.70 L 245.40 624.70 L 252.00 631.90 L 261.20 641.10 L 270.80 649.90 L 280.80 658.20 L 291.10 666.10 L 301.70 673.60 L 312.60 680.70 L 324.20 687.60 L 336.00 694.20 L 348.10 700.20 L 360.40 705.90 L 372.90 711.10 L 385.50 715.90 L 398.30 720.10 L 411.30 724.00 L 424.40 727.30 L 437.60 730.20 L 451.60 732.70 L 465.60 734.60 L 479.70 736.00 L 493.90 736.80 L 508.10 737.10 L 522.30 736.80 L 536.40 736.00 L 550.60 734.70 L 564.70 732.90 L 578.60 730.60 L 592.60 727.80 L 606.40 724.60 L 618.60 721.30 L 630.60 717.50 L 642.60 713.30 L 654.40 708.60 L 666.10 703.60 L 677.50 698.10 L 688.70 692.20 L 699.70 685.90 L 710.50 679.10 L 720.90 672.00 L 731.10 664.40 L 740.90 656.40 L 750.40 648.10 L 759.50 639.30 L 768.20 630.10 L 776.60 620.50 L 784.40 610.40 L 791.70 599.90 L 798.50 589.00 L 803.20 580.60 L 807.50 572.00 L 811.30 563.20 L 814.80 554.30 L 817.80 545.20 L 820.20 536.00 L 822.10 526.60 L 823.50 517.00 L 823.80 509.40 L 823.40 505.60 L 822.30 502.00 L 821.20 499.80 L 819.70 497.80 L 815.70 494.60 L 813.60 493.70 L 811.40 493.20 L 807.90 493.00 L 797.20 494.30 L 796.90 503.70 L 796.00 512.90 L 794.50 522.00 L 792.40 531.00 L 789.90 539.80 L 786.80 548.50 L 783.30 557.00 L 779.30 565.40 L 774.90 573.60 L 770.20 581.60 L 765.10 589.30 L 759.60 596.80 L 747.80 611.20 L 734.90 624.40 L 726.10 632.50 L 717.00 640.10 L 707.60 647.30 L 697.90 654.00 L 687.90 660.40 L 677.70 666.30 L 667.30 671.80 L 656.60 677.00 L 645.80 681.70 L 634.70 686.00 L 623.50 689.90 L 612.20 693.40 L 600.80 696.50 L 589.20 699.20 L 577.50 701.50 L 562.80 703.90 L 548.10 705.60 L 533.40 706.70 L 518.70 707.30 L 506.00 707.30 L 493.50 706.80 L 480.90 705.90 L 468.40 704.50 L 455.90 702.70 L 443.50 700.40 L 431.10 697.60 L 419.00 694.50 L 406.90 690.90 L 394.90 686.80 L 383.10 682.30 L 371.50 677.30 L 360.10 672.00 L 349.00 666.20 L 338.00 660.00 L 327.30 653.30 L 316.90 646.20 L 306.80 638.80 L 297.00 630.90 L 287.40 622.50 L 278.50 613.80 L 269.90 604.50 L 261.80 594.90 L 256.10 587.30 L 250.70 579.60 L 245.70 571.60 L 241.10 563.40 L 236.90 554.90 L 233.20 546.30 L 230.00 537.40 L 227.30 528.30 L 225.60 520.50 L 224.40 512.60 L 223.80 504.70 L 223.80 496.80 L 224.40 488.80 L 225.50 480.90 L 227.10 473.20 L 229.30 465.50 L 232.10 458.00 L 235.30 450.70 L 239.00 443.70 L 243.30 436.90 L 248.40 429.80 L 254.00 422.90 L 259.90 416.40 L 266.30 410.20 L 273.00 404.40 L 280.10 399.10 L 287.50 394.20 L 295.10 390.00 L 303.10 386.20 L 309.30 383.80 L 315.50 381.80 L 321.90 380.20 L 328.50 378.90 L 337.70 378.10 L 342.60 378.80 L 346.30 380.70 L 347.80 382.30 L 349.00 384.00 L 349.80 385.90 L 350.30 390.20 L 350.00 392.30 L 349.40 394.40 L 348.40 396.20 L 347.00 397.90 L 344.90 399.50 L 342.70 400.60 L 340.20 401.20 L 326.00 403.80 L 319.70 405.50 L 313.60 407.80 L 307.60 410.60 L 301.90 413.70 L 290.90 421.10 L 280.90 429.50 L 275.00 435.50 L 269.50 441.80 L 264.50 448.60 L 258.10 459.50 L 253.00 471.00 L 251.10 477.00 L 249.60 483.00 L 248.60 489.20 L 248.00 495.60 L 247.90 502.00 L 248.30 508.40 L 249.10 514.70 L 250.40 520.90 L 252.60 529.10 L 255.30 537.10 L 258.70 545.00 L 262.50 552.60 L 266.60 560.00 L 271.20 567.20 L 276.70 574.90 L 282.50 582.40 L 288.60 589.60 L 295.10 596.50 L 304.20 605.30 L 313.70 613.60 L 323.60 621.50 L 333.90 628.90 L 344.40 635.80 L 355.30 642.30 L 367.40 648.90 L 379.80 654.80 L 392.50 660.30 L 405.40 665.10 L 418.50 669.50 L 431.80 673.20 L 445.20 676.40 L 458.80 679.00 L 472.40 681.00 L 486.10 682.50 L 499.90 683.30 L 513.70 683.60 L 527.50 683.30 L 541.20 682.40 L 555.00 680.90 L 568.70 678.90 L 582.40 676.20 L 595.80 673.10 L 609.20 669.30 L 622.30 664.90 L 632.70 661.00 L 642.90 656.70 L 652.90 652.10 L 662.70 647.00 L 672.30 641.60 L 681.70 635.70 L 690.80 629.50 L 699.60 622.90 L 708.20 615.90 L 716.50 608.40 L 724.00 601.10 L 731.10 593.40 L 737.80 585.30 L 744.10 576.90 L 749.90 568.10 L 755.20 559.00 L 758.80 552.00 L 762.00 544.90 L 764.80 537.60 L 767.20 530.10 L 769.30 522.50 L 770.80 514.90 L 771.90 507.00 L 772.50 499.10 L 749.70 502.40 L 726.70 504.80 L 726.60 511.50 L 726.10 518.10 L 725.10 524.70 L 723.70 531.10 L 719.60 543.60 L 714.10 555.50 L 709.70 563.20 L 704.80 570.50 L 699.40 577.60 L 693.60 584.30 L 687.50 590.60 L 673.90 602.70 L 666.40 608.50 L 658.80 613.90 L 642.70 623.80 L 626.00 632.30 L 617.30 636.10 L 605.60 640.60 L 593.70 644.60 L 581.60 648.00 L 569.30 650.90 L 557.00 653.20 L 544.60 655.10 L 534.90 656.10 L 525.20 656.80 L 515.50 657.00 L 505.80 656.80 L 496.10 656.20 L 484.00 654.90 L 472.00 653.00 L 460.10 650.60 L 448.30 647.60 L 436.60 644.10 L 425.20 640.10 L 413.90 635.60 L 402.80 630.70 L 391.20 624.70 L 379.90 618.10 L 368.80 611.00 L 360.80 605.30 L 353.00 599.20 L 345.60 592.80 L 338.40 586.10 L 331.60 579.00 L 325.20 571.60 L 319.20 563.80 L 313.60 555.70 L 309.80 549.50 L 306.50 543.00 L 303.50 536.20 L 301.10 529.20 L 299.30 522.10 L 298.20 514.90 L 297.80 509.50 L 297.80 504.00 L 298.40 498.60 L 300.70 487.40 L 302.50 481.90 L 304.80 476.50 L 307.50 471.40 L 310.60 466.50 L 314.10 461.80 L 317.90 457.50 L 322.00 453.40 L 326.50 449.60 L 331.20 446.20 L 336.10 443.20 L 341.30 440.50 L 346.70 438.30 L 352.20 436.50 L 357.80 435.20 L 369.10 433.90 L 374.50 433.90 L 379.90 434.40 L 385.20 435.40 L 390.50 436.70 L 395.50 438.50 L 400.50 440.70 L 405.30 443.30 L 409.90 446.20 L 414.20 449.40 L 418.30 452.90 L 423.40 458.50 L 424.40 460.30 L 425.60 464.40 L 425.40 468.60 L 424.90 470.60 L 424.10 472.50 L 417.60 483.20 L 415.30 487.90 L 413.40 492.70 L 411.90 499.40 L 411.60 502.90 L 411.50 507.90 L 412.00 512.80 L 412.80 517.50 L 414.20 522.20 L 416.00 526.70 L 420.60 535.30 L 423.50 539.30 L 427.70 544.40 L 432.30 549.00 L 437.30 553.20 L 448.30 560.60 L 460.00 566.60 L 468.10 569.90 L 476.40 572.70 L 485.00 574.80 L 493.60 576.40 L 502.40 577.50 L 511.20 578.10 L 520.00 578.10 L 528.80 577.60 L 537.50 576.60 L 550.50 574.20 L 563.40 570.60 L 575.70 565.50 L 581.70 562.50 L 587.30 559.10 L 592.70 555.20 L 597.80 551.00 L 602.60 546.40 L 607.00 541.30 L 609.70 537.50 L 612.10 533.50 L 614.20 529.30 L 617.20 520.60 L 618.80 511.40 L 619.20 502.10 L 591.30 497.40 L 577.50 494.60 L 550.50 487.90 L 537.40 484.00 L 524.40 479.60 L 511.50 474.80 L 498.80 469.60 L 486.40 463.90 L 474.20 457.70 L 462.10 451.20 L 450.40 444.10 L 438.90 436.70 L 427.80 428.80 L 416.90 420.40 L 406.40 411.70 L 396.20 402.50 L 386.40 392.90 L 377.00 382.90 L 360.40 363.80 L 356.70 360.40 L 351.20 356.70 L 348.10 355.10 L 343.20 353.50 L 338.20 352.40 L 333.20 352.00 L 323.10 352.50 L 318.00 353.30 L 303.10 357.10 Z M 324.10 496.00 L 323.20 500.10 L 322.50 508.20 L 322.80 512.20 L 323.50 517.60 L 324.80 522.90 L 326.50 528.10 L 331.10 538.00 L 338.30 549.20 L 342.90 555.40 L 347.90 561.40 L 353.30 567.10 L 360.80 574.30 L 368.70 581.10 L 377.00 587.40 L 385.60 593.40 L 394.40 599.00 L 403.40 604.20 L 413.70 609.30 L 424.30 614.00 L 435.00 618.30 L 445.90 622.10 L 457.00 625.30 L 468.30 628.10 L 479.60 630.20 L 491.00 631.90 L 500.20 632.70 L 509.40 633.20 L 518.60 633.20 L 527.80 632.80 L 537.10 631.90 L 548.80 630.40 L 560.50 628.30 L 572.20 625.70 L 583.70 622.60 L 595.00 618.90 L 606.20 614.70 L 614.40 611.10 L 630.30 603.10 L 645.40 593.70 L 652.70 588.50 L 659.70 583.00 L 666.50 577.10 L 676.10 567.50 L 684.70 556.80 L 688.50 551.10 L 692.00 545.20 L 695.00 539.10 L 697.50 532.80 L 699.50 526.30 L 701.50 516.30 L 702.00 505.90 L 673.10 505.70 L 644.20 504.30 L 644.00 510.70 L 643.30 517.00 L 642.20 523.20 L 640.60 529.30 L 638.50 535.30 L 636.00 541.10 L 633.00 546.60 L 629.50 552.00 L 624.70 558.20 L 619.60 563.90 L 614.00 569.20 L 608.00 574.10 L 601.70 578.50 L 595.10 582.60 L 588.30 586.20 L 581.20 589.50 L 574.00 592.30 L 566.60 594.70 L 559.20 596.70 L 551.60 598.30 L 541.10 600.10 L 530.50 601.20 L 519.80 601.70 L 503.80 601.30 L 487.90 599.40 L 480.00 597.90 L 472.20 596.00 L 464.60 593.80 L 457.10 591.10 L 449.70 588.00 L 442.50 584.50 L 435.50 580.60 L 428.70 576.30 L 423.50 572.50 L 413.60 563.90 L 409.00 559.10 L 404.80 554.10 L 400.90 548.80 L 397.40 543.30 L 394.40 537.50 L 391.80 531.50 L 389.70 525.40 L 388.30 519.00 L 387.40 512.40 L 387.00 507.20 L 387.10 501.90 L 387.60 496.70 L 388.60 491.60 L 391.50 481.50 L 393.50 476.70 L 398.20 467.30 L 394.50 465.00 L 386.50 460.90 L 382.40 459.40 L 378.10 458.50 L 373.60 458.00 L 369.40 458.10 L 361.10 459.20 L 357.00 460.40 L 351.80 462.50 L 346.90 465.20 L 342.30 468.40 L 338.10 472.10 L 334.30 476.20 L 330.90 480.70 L 328.70 484.30 L 325.30 492.00 L 324.10 496.00 Z M 818.10 605.30 L 814.10 612.10 L 812.50 616.90 L 812.50 673.50 L 812.80 688.70 L 816.70 678.50 L 820.10 668.20 L 825.90 647.20 L 828.60 635.30 L 830.70 623.30 L 832.50 611.20 L 833.70 599.10 L 834.30 587.00 L 834.40 574.80 L 826.80 590.30 L 818.10 605.30 Z M 203.20 611.00 L 202.80 670.40 L 203.40 700.10 L 208.00 710.60 L 213.10 720.80 L 218.70 730.80 L 224.80 740.50 L 231.20 749.90 L 238.20 759.10 L 245.40 767.90 L 253.00 776.50 L 260.80 784.80 L 261.00 674.00 L 250.90 665.20 L 241.10 656.00 L 231.80 646.40 L 222.80 636.40 L 214.20 626.20 L 206.00 615.60 L 206.00 615.10 L 203.20 611.00 Z M 726.90 697.80 L 726.70 805.10 L 738.00 795.60 L 748.80 785.60 L 755.80 778.60 L 769.00 763.90 L 775.10 756.20 L 780.90 748.30 L 786.30 740.10 L 787.10 725.80 L 786.80 704.30 L 786.80 647.30 L 768.00 665.60 L 758.30 674.30 L 748.20 682.60 L 737.70 690.50 L 726.90 697.80 Z M 284.70 692.50 L 284.70 806.50 L 297.20 815.90 L 310.00 824.90 L 323.10 833.30 L 333.20 839.20 L 354.00 850.00 L 364.70 854.90 L 364.50 734.30 L 350.60 728.70 L 336.90 722.40 L 323.50 715.60 L 310.30 708.30 L 297.40 700.60 L 284.70 692.50 Z M 621.60 745.30 L 620.40 746.60 L 619.70 748.10 L 619.00 751.50 L 619.00 754.90 L 619.00 864.00 L 640.50 856.00 L 661.40 846.70 L 681.60 836.00 L 701.10 823.90 L 701.00 713.90 L 675.30 726.40 L 662.20 732.10 L 648.90 737.20 L 639.90 740.30 L 621.60 745.30 Z M 390.30 743.80 L 390.10 763.40 L 390.30 864.30 L 404.30 868.60 L 418.40 872.30 L 432.60 875.60 L 446.90 878.30 L 461.40 880.40 L 475.90 881.90 L 475.80 760.50 L 461.40 759.00 L 447.00 757.00 L 432.60 754.40 L 418.40 751.40 L 404.30 747.90 L 390.30 743.80 Z M 501.40 761.50 L 501.30 883.00 L 517.20 882.60 L 533.00 881.50 L 548.90 879.80 L 572.40 876.10 L 595.80 870.90 L 595.70 752.30 L 580.10 755.10 L 564.50 757.40 L 548.70 759.30 L 533.00 760.60 L 517.20 761.40 L 501.40 761.50 Z" fill="#312d2f" fill-rule="nonzero" node-id="61" stroke="none" target-height="579" target-width="702.4" target-x="156.4" target-y="328.1"></path><path d="M 197.90 270.50 L 199.60 269.70 L 202.70 269.30 L 204.90 269.80 L 207.00 270.90 L 208.90 272.50 L 210.40 274.40 L 211.60 276.70 L 214.00 283.40 L 216.20 287.30 L 218.90 291.00 L 222.00 294.30 L 225.40 297.20 L 229.20 299.80 L 233.20 301.90 L 237.40 303.70 L 243.50 305.70 L 244.90 306.50 L 246.20 307.50 L 247.70 309.50 L 248.70 311.80 L 249.00 313.40 L 248.70 316.60 L 248.10 318.10 L 245.80 320.70 L 242.20 322.70 L 230.80 327.60 L 227.30 329.70 L 221.80 334.20 L 218.10 338.60 L 215.80 342.20 L 210.10 354.00 L 208.50 356.50 L 205.30 358.40 L 203.10 358.90 L 200.90 358.80 L 198.80 358.20 L 197.50 357.50 L 195.50 355.20 L 188.30 340.60 L 185.20 336.20 L 181.10 332.20 L 176.30 328.80 L 172.50 326.80 L 159.00 320.70 L 156.90 318.40 L 156.10 316.30 L 155.70 314.00 L 156.00 311.60 L 156.80 309.50 L 158.80 307.20 L 174.70 300.10 L 179.10 297.40 L 181.80 295.30 L 184.30 292.80 L 188.20 287.70 L 194.20 274.70 L 195.80 272.40 L 197.90 270.50 Z M 196.20 306.90 L 193.80 309.70 L 192.80 313.10 L 193.20 316.70 L 194.90 319.80 L 197.70 322.00 L 200.70 323.00 L 203.10 323.00 L 205.40 322.40 L 207.60 321.30 L 209.40 319.70 L 210.30 318.50 L 211.40 315.40 L 211.50 313.40 L 211.20 311.60 L 209.50 308.30 L 206.60 305.90 L 203.10 304.60 L 201.30 304.50 L 199.50 304.80 L 197.80 305.60 L 196.20 306.90 Z" fill="#302c2e" fill-rule="nonzero" node-id="63" stroke="none" target-height="89.600006" target-width="93.3" target-x="155.7" target-y="269.3"></path><path d="M 901.90 684.50 L 904.10 683.60 L 906.00 683.40 L 907.90 683.70 L 909.70 684.50 L 911.40 685.70 L 914.10 689.00 L 917.00 696.50 L 918.80 700.00 L 920.90 703.30 L 923.30 706.30 L 926.10 709.10 L 929.10 711.60 L 932.30 713.80 L 935.80 715.60 L 943.90 718.60 L 948.10 720.80 L 949.80 722.30 L 951.10 724.10 L 952.00 726.90 L 951.90 728.70 L 951.40 730.70 L 950.60 732.40 L 949.40 733.70 L 947.10 735.30 L 944.50 736.60 L 936.00 740.00 L 933.00 741.50 L 930.10 743.40 L 924.90 747.80 L 920.70 753.10 L 918.90 756.00 L 913.30 767.40 L 911.40 769.60 L 909.90 770.80 L 908.10 771.60 L 905.90 772.00 L 904.10 771.70 L 901.20 770.30 L 899.50 768.60 L 898.10 766.50 L 892.00 753.90 L 889.80 750.70 L 887.30 747.90 L 881.30 743.00 L 878.00 741.00 L 872.80 738.50 L 864.40 735.20 L 861.60 732.30 L 860.60 730.20 L 860.20 727.90 L 860.30 725.60 L 860.80 724.20 L 862.80 721.50 L 868.20 718.70 L 876.60 715.30 L 879.30 713.90 L 882.70 711.60 L 885.80 709.10 L 888.60 706.20 L 891.10 702.90 L 893.20 699.50 L 898.60 687.50 L 900.00 685.80 L 901.90 684.50 Z M 899.90 720.70 L 898.40 722.10 L 897.40 723.70 L 896.80 725.60 L 896.80 729.50 L 898.40 733.10 L 899.70 734.60 L 901.40 735.70 L 903.40 736.60 L 905.60 736.90 L 907.80 736.70 L 909.90 735.90 L 911.80 734.80 L 914.10 732.00 L 914.90 729.10 L 915.10 727.10 L 914.90 725.30 L 913.10 722.00 L 910.30 719.60 L 906.80 718.40 L 903.10 718.60 L 901.50 719.40 L 899.90 720.70 Z" fill="#302c2e" fill-rule="nonzero" node-id="65" stroke="none" target-height="88.599976" target-width="91.79999" target-x="860.2" target-y="683.4"></path><path d="M 785.30 807.90 L 787.90 807.00 L 790.80 806.60 L 796.50 806.40 L 898.60 806.40 L 900.60 806.70 L 904.50 808.40 L 907.60 811.10 L 908.70 812.80 L 909.40 814.70 L 909.80 816.80 L 909.90 819.30 L 909.40 821.50 L 908.40 823.50 L 907.00 825.40 L 905.40 826.90 L 903.40 828.10 L 901.20 829.00 L 898.90 829.40 L 816.20 829.60 L 789.40 829.40 L 787.20 829.10 L 785.40 828.40 L 782.30 826.10 L 780.30 822.90 L 779.30 819.20 L 779.40 815.40 L 780.70 811.80 L 781.90 810.30 L 783.40 809.00 L 785.30 807.90 Z" fill="#302c2e" fill-rule="nonzero" node-id="67" stroke="none" target-height="23.199951" target-width="130.60004" target-x="779.3" target-y="806.4"></path><path d="M 196.20 306.90 L 197.80 305.60 L 199.50 304.80 L 201.30 304.50 L 204.90 305.10 L 208.20 307.00 L 210.50 309.90 L 211.20 311.60 L 211.50 313.40 L 211.00 317.00 L 209.40 319.70 L 207.60 321.30 L 205.40 322.40 L 203.10 323.00 L 199.20 322.60 L 196.30 321.10 L 194.90 319.80 L 193.20 316.70 L 192.80 313.10 L 193.80 309.70 L 196.20 306.90 Z" fill="#fdfefe" fill-rule="nonzero" node-id="69" stroke="none" target-height="18.5" target-width="18.699997" target-x="192.8" target-y="304.5"></path><path d="M 899.90 720.70 L 901.50 719.40 L 903.10 718.60 L 906.80 718.40 L 910.30 719.60 L 913.10 722.00 L 914.20 723.60 L 914.90 725.30 L 915.10 727.10 L 914.90 729.10 L 914.10 732.00 L 911.80 734.80 L 909.90 735.90 L 907.80 736.70 L 905.60 736.90 L 903.40 736.60 L 901.40 735.70 L 899.70 734.60 L 898.40 733.10 L 897.40 731.40 L 896.80 729.50 L 896.60 727.60 L 896.80 725.60 L 897.40 723.70 L 898.40 722.10 L 899.90 720.70 Z" fill="#fdfefe" fill-rule="nonzero" node-id="71" stroke="none" target-height="18.5" target-width="18.5" target-x="896.6" target-y="718.4"></path><path d="M 303.10 357.10 L 318.00 353.30 L 323.10 352.50 L 333.20 352.00 L 338.20 352.40 L 343.20 353.50 L 348.10 355.10 L 351.20 356.70 L 356.70 360.40 L 360.40 363.80 L 377.00 382.90 L 386.40 392.90 L 396.20 402.50 L 406.40 411.70 L 416.90 420.40 L 427.80 428.80 L 438.90 436.70 L 450.40 444.10 L 462.10 451.20 L 474.20 457.70 L 486.40 463.90 L 498.80 469.60 L 511.50 474.80 L 524.40 479.60 L 537.40 484.00 L 550.50 487.90 L 577.50 494.60 L 591.30 497.40 L 619.20 502.10 L 618.80 511.40 L 617.20 520.60 L 614.20 529.30 L 612.10 533.50 L 609.70 537.50 L 607.00 541.30 L 602.60 546.40 L 597.80 551.00 L 592.70 555.20 L 587.30 559.10 L 581.70 562.50 L 575.70 565.50 L 563.40 570.60 L 550.50 574.20 L 537.50 576.60 L 528.80 577.60 L 520.00 578.10 L 511.20 578.10 L 502.40 577.50 L 493.60 576.40 L 485.00 574.80 L 476.40 572.70 L 468.10 569.90 L 460.00 566.60 L 448.30 560.60 L 437.30 553.20 L 432.30 549.00 L 427.70 544.40 L 423.50 539.30 L 420.60 535.30 L 416.00 526.70 L 414.20 522.20 L 412.80 517.50 L 412.00 512.80 L 411.50 507.90 L 411.60 502.90 L 411.90 499.40 L 413.40 492.70 L 415.30 487.90 L 417.60 483.20 L 424.10 472.50 L 424.90 470.60 L 425.40 468.60 L 425.60 464.40 L 424.40 460.30 L 423.40 458.50 L 418.30 452.90 L 414.20 449.40 L 409.90 446.20 L 405.30 443.30 L 400.50 440.70 L 395.50 438.50 L 390.50 436.70 L 385.20 435.40 L 379.90 434.40 L 374.50 433.90 L 369.10 433.90 L 357.80 435.20 L 352.20 436.50 L 346.70 438.30 L 341.30 440.50 L 336.10 443.20 L 331.20 446.20 L 326.50 449.60 L 322.00 453.40 L 317.90 457.50 L 314.10 461.80 L 310.60 466.50 L 307.50 471.40 L 304.80 476.50 L 302.50 481.90 L 300.70 487.40 L 298.40 498.60 L 297.80 504.00 L 297.80 509.50 L 298.20 514.90 L 299.30 522.10 L 301.10 529.20 L 303.50 536.20 L 306.50 543.00 L 309.80 549.50 L 313.60 555.70 L 319.20 563.80 L 325.20 571.60 L 331.60 579.00 L 338.40 586.10 L 345.60 592.80 L 353.00 599.20 L 360.80 605.30 L 368.80 611.00 L 379.90 618.10 L 391.20 624.70 L 402.80 630.70 L 413.90 635.60 L 425.20 640.10 L 436.60 644.10 L 448.30 647.60 L 460.10 650.60 L 472.00 653.00 L 484.00 654.90 L 496.10 656.20 L 505.80 656.80 L 515.50 657.00 L 525.20 656.80 L 534.90 656.10 L 544.60 655.10 L 557.00 653.20 L 569.30 650.90 L 581.60 648.00 L 593.70 644.60 L 605.60 640.60 L 617.30 636.10 L 626.00 632.30 L 642.70 623.80 L 658.80 613.90 L 666.40 608.50 L 673.90 602.70 L 687.50 590.60 L 693.60 584.30 L 699.40 577.60 L 704.80 570.50 L 709.70 563.20 L 714.10 555.50 L 719.60 543.60 L 723.70 531.10 L 725.10 524.70 L 726.10 518.10 L 726.60 511.50 L 726.70 504.80 L 749.70 502.40 L 772.50 499.10 L 771.90 507.00 L 770.80 514.90 L 769.30 522.50 L 767.20 530.10 L 764.80 537.60 L 762.00 544.90 L 758.80 552.00 L 755.20 559.00 L 749.90 568.10 L 744.10 576.90 L 737.80 585.30 L 731.10 593.40 L 724.00 601.10 L 716.50 608.40 L 708.20 615.90 L 699.60 622.90 L 690.80 629.50 L 681.70 635.70 L 672.30 641.60 L 662.70 647.00 L 652.90 652.10 L 642.90 656.70 L 632.70 661.00 L 622.30 664.90 L 609.20 669.30 L 595.80 673.10 L 582.40 676.20 L 568.70 678.90 L 555.00 680.90 L 541.20 682.40 L 527.50 683.30 L 513.70 683.60 L 499.90 683.30 L 486.10 682.50 L 472.40 681.00 L 458.80 679.00 L 445.20 676.40 L 431.80 673.20 L 418.50 669.50 L 405.40 665.10 L 392.50 660.30 L 379.80 654.80 L 367.40 648.90 L 355.30 642.30 L 344.40 635.80 L 333.90 628.90 L 323.60 621.50 L 313.70 613.60 L 304.20 605.30 L 295.10 596.50 L 288.60 589.60 L 282.50 582.40 L 276.70 574.90 L 271.20 567.20 L 266.60 560.00 L 262.50 552.60 L 258.70 545.00 L 255.30 537.10 L 252.60 529.10 L 250.40 520.90 L 249.10 514.70 L 248.30 508.40 L 247.90 502.00 L 248.00 495.60 L 248.60 489.20 L 249.60 483.00 L 251.10 477.00 L 253.00 471.00 L 258.10 459.50 L 264.50 448.60 L 269.50 441.80 L 275.00 435.50 L 280.90 429.50 L 290.90 421.10 L 301.90 413.70 L 307.60 410.60 L 313.60 407.80 L 319.70 405.50 L 326.00 403.80 L 340.20 401.20 L 342.70 400.60 L 344.90 399.50 L 347.00 397.90 L 348.40 396.20 L 349.40 394.40 L 350.00 392.30 L 350.30 390.20 L 349.80 385.90 L 349.00 384.00 L 347.80 382.30 L 346.30 380.70 L 342.60 378.80 L 337.70 378.10 L 328.50 378.90 L 321.90 380.20 L 315.50 381.80 L 309.30 383.80 L 303.10 386.20 L 295.10 390.00 L 287.50 394.30 L 280.10 399.10 L 273.00 404.40 L 266.30 410.20 L 259.90 416.40 L 254.00 422.90 L 248.40 429.80 L 243.30 436.90 L 239.00 443.70 L 235.30 450.70 L 232.10 458.00 L 229.30 465.50 L 227.10 473.20 L 225.50 480.90 L 224.40 488.80 L 223.80 496.80 L 223.80 504.70 L 224.40 512.60 L 225.60 520.50 L 227.30 528.30 L 230.00 537.40 L 233.20 546.30 L 236.90 554.90 L 241.10 563.40 L 245.70 571.60 L 250.70 579.60 L 256.10 587.30 L 261.80 594.90 L 269.90 604.50 L 278.50 613.80 L 287.40 622.50 L 297.00 630.90 L 306.80 638.80 L 316.90 646.20 L 327.30 653.30 L 338.00 660.00 L 349.00 666.20 L 360.10 672.00 L 371.50 677.30 L 383.10 682.30 L 394.90 686.80 L 406.90 690.90 L 419.00 694.50 L 431.10 697.60 L 443.50 700.40 L 455.90 702.70 L 468.40 704.50 L 480.90 705.90 L 493.50 706.80 L 506.00 707.30 L 518.70 707.30 L 533.40 706.70 L 548.10 705.60 L 562.80 703.90 L 577.50 701.50 L 589.20 699.20 L 600.80 696.50 L 612.20 693.40 L 623.50 689.90 L 634.70 686.00 L 645.80 681.70 L 656.60 677.00 L 667.30 671.80 L 677.70 666.30 L 687.90 660.40 L 697.90 654.00 L 707.60 647.30 L 717.00 640.10 L 726.10 632.50 L 734.90 624.40 L 747.80 611.20 L 759.60 596.80 L 765.10 589.30 L 770.20 581.60 L 774.90 573.60 L 779.30 565.40 L 783.30 557.00 L 786.80 548.50 L 789.90 539.80 L 792.40 531.00 L 794.50 522.00 L 796.00 512.90 L 796.90 503.70 L 797.20 494.30 L 807.90 493.00 L 811.40 493.20 L 813.60 493.70 L 815.70 494.60 L 819.70 497.80 L 821.20 499.80 L 822.30 502.00 L 823.40 505.60 L 823.80 509.40 L 823.50 517.00 L 822.10 526.60 L 820.20 536.00 L 817.80 545.20 L 814.80 554.30 L 811.30 563.20 L 807.50 572.00 L 803.20 580.60 L 798.50 589.00 L 791.70 599.90 L 784.40 610.40 L 776.60 620.50 L 768.20 630.10 L 759.50 639.30 L 750.40 648.10 L 740.90 656.40 L 731.10 664.40 L 720.90 672.00 L 710.50 679.10 L 699.70 685.90 L 688.70 692.20 L 677.50 698.10 L 666.10 703.60 L 654.40 708.60 L 642.60 713.30 L 630.60 717.50 L 618.60 721.30 L 606.40 724.60 L 592.60 727.80 L 578.60 730.60 L 564.70 732.90 L 550.60 734.70 L 536.40 736.00 L 522.30 736.80 L 508.10 737.10 L 493.90 736.80 L 479.70 736.00 L 465.60 734.60 L 451.60 732.70 L 437.60 730.20 L 424.40 727.30 L 411.30 724.00 L 398.30 720.10 L 385.50 715.90 L 372.90 711.10 L 360.40 705.90 L 348.10 700.20 L 336.00 694.20 L 324.20 687.60 L 312.60 680.70 L 301.70 673.60 L 291.10 666.10 L 280.80 658.20 L 270.80 649.90 L 261.20 641.10 L 252.00 631.90 L 245.40 624.70 L 233.10 609.70 L 227.30 601.80 L 222.00 594.00 L 217.20 585.90 L 212.60 577.60 L 208.50 569.10 L 204.70 560.30 L 201.40 551.50 L 198.60 542.50 L 196.20 533.40 L 194.30 524.10 L 193.00 514.80 L 192.30 505.40 L 192.20 495.80 L 192.50 487.90 L 193.40 480.00 L 194.80 472.20 L 196.80 464.50 L 199.10 456.90 L 202.00 449.50 L 205.30 442.20 L 208.90 435.20 L 213.00 428.30 L 218.40 420.20 L 224.30 412.40 L 230.60 405.00 L 237.30 397.90 L 244.40 391.20 L 251.90 384.90 L 259.70 379.10 L 267.90 373.70 L 276.30 368.70 L 285.00 364.30 L 293.90 360.50 L 303.10 357.10 Z M 453.00 488.00 L 451.00 489.10 L 449.30 490.50 L 447.90 492.20 L 446.20 496.30 L 445.90 498.60 L 445.80 500.90 L 446.50 505.30 L 447.80 509.60 L 449.50 513.60 L 451.50 517.50 L 454.00 521.10 L 457.70 525.60 L 461.90 529.70 L 466.60 533.40 L 471.60 536.70 L 476.70 539.50 L 482.10 541.90 L 488.60 544.20 L 495.20 545.90 L 502.00 547.00 L 508.70 547.60 L 515.60 547.70 L 522.40 547.30 L 536.00 545.40 L 542.70 543.80 L 555.80 539.70 L 562.20 537.20 L 568.00 534.40 L 570.70 532.60 L 572.90 530.40 L 574.10 528.70 L 574.90 526.80 L 575.30 524.50 L 575.20 520.80 L 574.70 519.10 L 573.40 516.70 L 571.50 514.70 L 569.30 513.10 L 566.80 512.10 L 565.00 511.70 L 561.40 512.10 L 537.60 520.80 L 526.50 523.20 L 520.20 524.00 L 513.80 524.20 L 509.00 524.00 L 499.60 522.60 L 495.10 521.40 L 490.70 519.80 L 486.40 517.70 L 482.40 515.20 L 476.70 510.60 L 473.80 506.90 L 472.20 503.80 L 467.60 491.80 L 466.40 490.20 L 464.80 488.90 L 461.10 487.20 L 459.10 486.90 L 457.00 486.90 L 453.00 488.00 Z" fill="#ffdba2" fill-rule="nonzero" node-id="73" stroke="none" target-height="385.09998" target-width="631.6" target-x="192.2" target-y="352"></path><path d="M 324.10 496.00 L 325.30 492.00 L 328.70 484.30 L 330.90 480.70 L 334.30 476.20 L 338.10 472.10 L 342.30 468.40 L 346.90 465.20 L 351.80 462.50 L 357.00 460.40 L 361.10 459.20 L 369.40 458.10 L 373.60 458.00 L 378.10 458.50 L 382.40 459.40 L 386.50 460.90 L 394.50 465.00 L 398.20 467.30 L 393.50 476.70 L 391.50 481.50 L 388.60 491.60 L 387.60 496.70 L 387.10 501.90 L 387.00 507.20 L 387.40 512.40 L 388.30 519.00 L 389.70 525.40 L 391.80 531.50 L 394.40 537.50 L 397.40 543.30 L 400.90 548.80 L 404.80 554.10 L 409.00 559.10 L 413.60 563.90 L 423.50 572.50 L 428.70 576.30 L 435.50 580.60 L 442.50 584.50 L 449.70 588.00 L 457.10 591.10 L 464.60 593.80 L 472.20 596.00 L 480.00 597.90 L 487.90 599.40 L 503.80 601.30 L 519.80 601.70 L 530.50 601.20 L 541.10 600.10 L 551.60 598.30 L 559.20 596.70 L 566.60 594.70 L 574.00 592.30 L 581.20 589.50 L 588.30 586.20 L 595.10 582.60 L 601.70 578.50 L 608.00 574.10 L 614.00 569.20 L 619.60 563.90 L 624.70 558.20 L 629.50 552.00 L 633.00 546.60 L 636.00 541.10 L 638.50 535.30 L 640.60 529.30 L 642.20 523.20 L 643.30 517.00 L 644.00 510.70 L 644.20 504.30 L 673.10 505.70 L 702.00 505.90 L 701.90 511.20 L 700.70 521.30 L 699.50 526.30 L 697.50 532.80 L 695.00 539.10 L 692.00 545.20 L 688.50 551.10 L 684.70 556.80 L 676.10 567.50 L 666.50 577.10 L 659.70 583.00 L 652.70 588.50 L 645.40 593.70 L 630.30 603.10 L 614.40 611.10 L 606.20 614.70 L 595.00 618.90 L 583.70 622.60 L 572.20 625.70 L 560.50 628.30 L 548.80 630.40 L 537.10 631.90 L 527.80 632.80 L 518.60 633.20 L 509.40 633.20 L 500.20 632.70 L 491.00 631.90 L 479.60 630.20 L 468.30 628.10 L 457.00 625.30 L 445.90 622.10 L 435.00 618.30 L 424.30 614.00 L 413.70 609.30 L 403.40 604.20 L 394.40 599.00 L 385.60 593.40 L 377.00 587.40 L 368.70 581.10 L 360.80 574.30 L 353.30 567.10 L 347.90 561.40 L 342.90 555.40 L 338.30 549.20 L 331.10 538.00 L 326.50 528.10 L 324.80 522.90 L 323.50 517.60 L 322.80 512.20 L 322.50 508.20 L 323.20 500.10 L 324.10 496.00 Z" fill="#ffdba2" fill-rule="nonzero" node-id="75" stroke="none" target-height="175.20001" target-width="379.5" target-x="322.5" target-y="458"></path><path d="M 84.30 359.00 L 87.30 357.60 L 90.40 356.90 L 93.40 356.70 L 96.50 357.00 L 99.50 357.70 L 102.40 358.80 L 105.20 360.40 L 107.60 362.20 L 109.90 364.40 L 111.80 366.90 L 113.30 369.50 L 114.40 372.40 L 115.00 375.40 L 115.10 378.50 L 113.80 384.90 L 112.60 387.70 L 111.00 390.30 L 109.00 392.50 L 106.70 394.50 L 104.20 396.10 L 98.60 398.30 L 95.60 398.80 L 92.50 399.00 L 89.50 398.80 L 86.60 398.10 L 83.80 397.00 L 81.20 395.50 L 78.70 393.40 L 76.80 391.50 L 73.90 387.20 L 73.00 384.80 L 72.20 381.50 L 72.00 378.20 L 72.30 374.70 L 73.10 371.40 L 74.40 368.30 L 76.20 365.30 L 78.50 362.80 L 81.10 360.60 L 84.30 359.00 Z M 91.50 370.80 L 89.80 371.40 L 88.40 372.20 L 87.50 373.30 L 86.30 376.00 L 86.20 377.50 L 86.50 379.80 L 87.40 381.90 L 88.30 383.10 L 90.60 384.80 L 92.00 385.20 L 93.50 385.30 L 97.00 384.20 L 98.20 383.30 L 99.80 381.00 L 100.30 378.20 L 100.00 376.10 L 99.10 374.00 L 97.80 372.30 L 96.10 371.10 L 94.80 370.70 L 91.50 370.80 Z" fill="#2e2c2f" fill-rule="nonzero" node-id="77" stroke="none" target-height="42.299988" target-width="43.1" target-x="72" target-y="356.7"></path><path d="M 453.00 488.00 L 457.00 486.90 L 459.10 486.90 L 461.10 487.20 L 464.80 488.90 L 466.40 490.20 L 467.60 491.80 L 472.20 503.80 L 473.80 506.90 L 476.70 510.60 L 482.40 515.20 L 486.40 517.70 L 490.70 519.80 L 495.10 521.40 L 499.60 522.60 L 509.00 524.00 L 513.80 524.20 L 520.20 524.00 L 526.50 523.20 L 537.60 520.80 L 561.40 512.10 L 563.20 511.70 L 566.80 512.10 L 569.30 513.10 L 571.50 514.70 L 573.40 516.70 L 574.70 519.10 L 575.40 522.60 L 574.90 526.80 L 574.10 528.70 L 572.90 530.40 L 570.70 532.60 L 568.00 534.40 L 562.20 537.20 L 555.80 539.70 L 542.70 543.80 L 536.00 545.40 L 522.40 547.30 L 515.60 547.70 L 508.70 547.60 L 502.00 547.00 L 495.20 545.90 L 488.60 544.20 L 482.10 541.90 L 476.70 539.50 L 471.60 536.70 L 466.60 533.40 L 461.90 529.70 L 457.70 525.60 L 454.00 521.10 L 451.50 517.50 L 449.50 513.60 L 447.80 509.60 L 446.50 505.30 L 445.80 500.90 L 445.90 498.60 L 446.20 496.30 L 447.90 492.20 L 449.30 490.50 L 451.00 489.10 L 453.00 488.00 Z" fill="#322e30" fill-rule="nonzero" node-id="79" stroke="none" target-height="60.80002" target-width="129.60004" target-x="445.8" target-y="486.9"></path><path d="M 904.40 518.30 L 905.80 517.60 L 908.50 517.30 L 910.50 517.80 L 912.40 518.90 L 913.80 520.40 L 914.90 522.30 L 915.30 525.00 L 914.40 528.00 L 913.40 529.30 L 912.20 530.30 L 909.20 531.50 L 905.90 531.40 L 904.40 530.80 L 902.00 528.70 L 900.80 526.00 L 900.80 523.00 L 902.00 520.20 L 904.40 518.30 Z" fill="#fefefe" fill-rule="nonzero" node-id="81" stroke="none" target-height="14.200012" target-width="14.5" target-x="900.8" target-y="517.3"></path><path d="M 100.70 651.10 L 102.60 650.30 L 104.40 650.20 L 106.00 650.50 L 108.90 652.30 L 110.90 655.20 L 111.40 658.50 L 111.10 660.10 L 110.20 661.60 L 107.10 664.10 L 105.50 664.70 L 104.10 664.80 L 101.20 664.00 L 100.00 663.00 L 98.40 661.30 L 97.40 659.20 L 97.00 657.60 L 97.30 654.70 L 98.00 653.30 L 99.10 652.20 L 100.70 651.10 Z" fill="#fefefe" fill-rule="nonzero" node-id="83" stroke="none" target-height="14.599976" target-width="14.400002" target-x="97" target-y="650.2"></path><path d="M 818.10 605.30 L 826.80 590.30 L 834.40 574.80 L 834.30 587.00 L 833.70 599.10 L 832.50 611.20 L 830.70 623.30 L 828.60 635.30 L 825.90 647.20 L 812.50 658.40 L 812.50 616.90 L 814.10 612.10 L 818.10 605.30 Z" fill="#ed7355" fill-rule="nonzero" node-id="85" stroke="none" target-height="83.60004" target-width="21.900024" target-x="812.5" target-y="574.8"></path><path d="M 203.20 611.00 L 206.00 615.10 L 204.20 627.40 L 203.40 639.50 L 203.90 647.50 L 204.70 651.40 L 205.80 655.10 L 207.40 658.80 L 209.50 662.30 L 214.70 669.50 L 226.00 683.20 L 232.10 689.60 L 238.50 695.80 L 245.20 701.70 L 252.10 707.20 L 259.30 712.40 L 261.00 674.00 L 260.80 784.80 L 253.00 776.50 L 245.40 767.90 L 238.20 759.10 L 231.20 749.90 L 224.80 740.50 L 218.70 730.80 L 213.10 720.80 L 208.00 710.60 L 203.40 700.10 L 202.80 670.40 L 203.20 611.00 Z" fill="#fc906c" fill-rule="nonzero" node-id="87" stroke="none" target-height="173.79999" target-width="58.199997" target-x="202.8" target-y="611"></path><path d="M 726.90 736.60 L 735.20 733.00 L 743.30 729.00 L 751.10 724.60 L 758.80 719.90 L 766.30 714.70 L 773.40 709.20 L 780.30 703.40 L 786.90 697.10 L 787.10 725.80 L 786.30 740.10 L 780.90 748.30 L 775.10 756.20 L 769.00 763.90 L 755.80 778.60 L 748.80 785.60 L 738.00 795.60 L 726.70 805.10 L 726.90 736.60 Z" fill="#fc906c" fill-rule="nonzero" node-id="89" stroke="none" target-height="108" target-width="60.399963" target-x="726.7" target-y="697.1"></path><path d="M 501.30 812.30 L 513.90 808.10 L 526.70 804.60 L 533.20 803.30 L 546.00 801.80 L 558.50 801.60 L 567.80 802.10 L 595.70 804.90 L 595.80 870.90 L 572.40 876.10 L 548.90 879.80 L 533.00 881.50 L 517.20 882.60 L 501.30 883.00 L 501.30 812.30 Z" fill="#fc906c" fill-rule="nonzero" node-id="91" stroke="none" target-height="81.400024" target-width="94.5" target-x="501.3" target-y="801.6"></path><path d="M 209.50 662.30 L 207.40 658.80 L 205.80 655.10 L 204.70 651.40 L 203.50 643.60 L 203.60 633.50 L 206.00 615.60 L 214.20 626.20 L 222.80 636.40 L 231.80 646.40 L 241.10 656.00 L 250.90 665.20 L 261.00 674.00 L 259.30 712.40 L 252.10 707.20 L 245.20 701.70 L 238.50 695.80 L 232.10 689.60 L 220.20 676.50 L 209.50 662.30 Z" fill="#ee7355" fill-rule="nonzero" node-id="93" stroke="none" target-height="96.80005" target-width="57.5" target-x="203.5" target-y="615.6"></path><path d="M 726.90 697.80 L 737.70 690.50 L 748.20 682.60 L 758.30 674.30 L 768.00 665.60 L 786.80 647.30 L 786.90 672.20 L 786.90 697.10 L 780.30 703.40 L 773.40 709.20 L 766.30 714.70 L 758.80 719.90 L 751.10 724.60 L 743.30 729.00 L 735.20 733.00 L 726.90 736.60 L 726.90 697.80 Z" fill="#ee7355" fill-rule="nonzero" node-id="95" stroke="none" target-height="89.29999" target-width="60" target-x="726.9" target-y="647.3"></path><path d="M 390.30 743.80 L 404.30 747.90 L 418.40 751.40 L 432.60 754.40 L 447.00 757.00 L 461.40 759.00 L 475.80 760.50 L 475.80 795.80 L 461.80 792.10 L 447.70 789.10 L 433.50 786.60 L 419.10 784.80 L 404.70 783.60 L 390.30 782.90 L 390.10 763.40 L 390.30 743.80 Z" fill="#ee7355" fill-rule="nonzero" node-id="97" stroke="none" target-height="52" target-width="85.69998" target-x="390.1" target-y="743.8"></path><path d="M 812.50 658.40 L 825.90 647.20 L 820.10 668.20 L 816.70 678.50 L 812.80 688.70 L 812.50 658.40 Z" fill="#fb8d66" fill-rule="nonzero" node-id="99" stroke="none" target-height="41.5" target-width="13.400024" target-x="812.5" target-y="647.2"></path><path d="M 284.70 692.50 L 297.40 700.60 L 310.30 708.30 L 323.50 715.60 L 336.90 722.40 L 350.60 728.70 L 364.50 734.30 L 364.60 789.00 L 357.00 781.60 L 349.00 774.60 L 340.70 768.10 L 332.10 761.90 L 323.20 756.30 L 313.90 751.20 L 304.40 746.60 L 294.60 742.50 L 284.60 739.10 L 284.70 692.50 Z" fill="#ee7255" fill-rule="nonzero" node-id="101" stroke="none" target-height="96.5" target-width="80" target-x="284.6" target-y="692.5"></path><path d="M 621.60 745.30 L 639.90 740.30 L 648.90 737.20 L 662.20 732.10 L 675.30 726.40 L 701.00 713.90 L 701.00 756.30 L 687.40 758.90 L 660.50 765.10 L 640.40 770.50 L 620.60 776.50 L 620.00 768.70 L 620.00 760.90 L 620.60 753.10 L 621.60 745.30 Z" fill="#ee7254" fill-rule="nonzero" node-id="103" stroke="none" target-height="62.599976" target-width="81" target-x="620" target-y="713.9"></path><path d="M 284.60 739.10 L 294.60 742.50 L 304.40 746.60 L 313.90 751.20 L 323.20 756.30 L 332.10 761.90 L 340.70 768.10 L 349.00 774.60 L 357.00 781.60 L 364.60 789.00 L 364.70 854.90 L 343.50 844.80 L 333.20 839.20 L 323.10 833.30 L 310.00 824.90 L 297.20 815.90 L 284.70 806.50 L 284.60 739.10 Z" fill="#fb906c" fill-rule="nonzero" node-id="105" stroke="none" target-height="115.80005" target-width="80.100006" target-x="284.6" target-y="739.1"></path><path d="M 390.30 782.90 L 404.70 783.60 L 419.10 784.80 L 433.50 786.60 L 447.70 789.10 L 461.80 792.10 L 475.80 795.80 L 475.90 881.90 L 461.40 880.40 L 446.90 878.30 L 432.60 875.60 L 418.40 872.30 L 404.30 868.60 L 390.30 864.30 L 390.30 782.90 Z" fill="#fb906c" fill-rule="nonzero" node-id="107" stroke="none" target-height="99" target-width="85.600006" target-x="390.3" target-y="782.9"></path><path d="M 619.00 754.90 L 619.00 751.50 L 619.70 748.10 L 620.40 746.60 L 621.60 745.30 L 620.60 753.10 L 620.00 760.90 L 620.00 768.70 L 620.60 776.50 L 640.40 770.50 L 660.50 765.10 L 687.40 758.90 L 701.00 756.30 L 701.10 823.90 L 681.60 836.00 L 661.40 846.70 L 640.50 856.00 L 619.00 864.00 L 619.00 754.90 Z" fill="#fb8f6c" fill-rule="nonzero" node-id="109" stroke="none" target-height="118.70001" target-width="82.099976" target-x="619" target-y="745.3"></path><path d="M 501.40 761.50 L 517.20 761.40 L 533.00 760.60 L 548.70 759.30 L 564.50 757.40 L 580.10 755.10 L 595.70 752.30 L 595.70 804.90 L 567.80 802.10 L 558.50 801.60 L 546.00 801.80 L 533.20 803.30 L 526.70 804.60 L 513.90 808.10 L 501.30 812.30 L 501.40 761.50 Z" fill="#ef7355" fill-rule="nonzero" node-id="111" stroke="none" target-height="60" target-width="94.400024" target-x="501.3" target-y="752.3"></path></svg>